<svg width="124" height="124" viewBox="0 0 124 124" fill="none" xmlns="http://www.w3.org/2000/svg">
<circle cx="62" cy="62" r="62" fill="#E8EFFF"/>
<g clip-path="url(#clip0_75_2)">
<path d="M79.6746 74.3971L84.2897 53.8957C84.6229 52.4154 83.5085 51.0058 82.0049 51.0058H43.6592L42.7644 46.5891C42.5414 45.4883 41.5819 44.6977 40.4689 44.6977H30.4594C29.1654 44.6977 28.1164 45.7568 28.1164 47.0632V48.6403C28.1164 49.9468 29.1654 51.0058 30.4594 51.0058H37.2818L44.1398 84.8564C42.4991 85.809 41.3935 87.5952 41.3935 89.6432C41.3935 92.6916 43.8412 95.1628 46.8605 95.1628C49.8799 95.1628 52.3276 92.6916 52.3276 89.6432C52.3276 88.0983 51.6982 86.7025 50.6851 85.7006H71.1521C70.1392 86.7025 69.5098 88.0983 69.5098 89.6432C69.5098 92.6916 71.9575 95.1628 74.9768 95.1628C77.9962 95.1628 80.4439 92.6916 80.4439 89.6432C80.4439 87.4578 79.1857 85.5693 77.361 84.675L77.8996 82.2823C78.2327 80.802 77.1184 79.3925 75.6148 79.3925H49.4102L48.7713 76.2384H77.3898C78.4838 76.2384 79.4322 75.4741 79.6746 74.3971Z" fill="#608AF8"/>
</g>
<defs>
<clipPath id="clip0_75_2">
<rect width="56.2326" height="50.4651" fill="white" transform="translate(28.1164 44.6977)"/>
</clipPath>
</defs>
</svg>
