<svg width="138" height="124" viewBox="0 0 138 124" fill="none" xmlns="http://www.w3.org/2000/svg">
<circle cx="62" cy="62" r="62" fill="#E8EFFF"/>
<g clip-path="url(#clip0_75_2)">
<path d="M79.6746 74.3971L84.2897 53.8957C84.6229 52.4154 83.5085 51.0058 82.0049 51.0058H43.6592L42.7644 46.5891C42.5414 45.4883 41.5819 44.6977 40.4689 44.6977H30.4594C29.1654 44.6977 28.1164 45.7568 28.1164 47.0632V48.6403C28.1164 49.9468 29.1654 51.0058 30.4594 51.0058H37.2818L44.1398 84.8564C42.4991 85.809 41.3935 87.5952 41.3935 89.6432C41.3935 92.6916 43.8412 95.1628 46.8605 95.1628C49.8799 95.1628 52.3276 92.6916 52.3276 89.6432C52.3276 88.0983 51.6982 86.7025 50.6851 85.7006H71.1521C70.1392 86.7025 69.5098 88.0983 69.5098 89.6432C69.5098 92.6916 71.9575 95.1628 74.9768 95.1628C77.9962 95.1628 80.4439 92.6916 80.4439 89.6432C80.4439 87.4578 79.1857 85.5693 77.3609 84.675L77.8996 82.2823C78.2327 80.802 77.1183 79.3925 75.6148 79.3925H49.4102L48.7713 76.2384H77.3898C78.4838 76.2384 79.4322 75.4741 79.6746 74.3971Z" fill="#608AF8"/>
</g>
<circle r="23.7907" transform="matrix(-1 0 0 1 113.907 36.0465)" fill="white"/>
<path d="M119.452 37.0375C119.452 40.8461 118.802 43.6761 117.501 45.5277C116.2 47.3793 114.167 48.3051 111.401 48.3051C108.671 48.3051 106.649 47.4027 105.337 45.598C104.024 43.7816 103.345 41.0746 103.298 37.4769V33.1351C103.298 29.3734 103.948 26.5785 105.249 24.7504C106.55 22.9222 108.589 22.0082 111.366 22.0082C114.12 22.0082 116.147 22.8929 117.448 24.6625C118.749 26.4203 119.417 29.139 119.452 32.8187V37.0375ZM116.2 32.5902C116.2 29.8363 115.813 27.8324 115.04 26.5785C114.266 25.3129 113.042 24.6801 111.366 24.6801C109.702 24.6801 108.489 25.307 107.727 26.5609C106.966 27.8148 106.573 29.7426 106.55 32.3441V37.5472C106.55 40.3129 106.948 42.3578 107.745 43.682C108.554 44.9945 109.772 45.6508 111.401 45.6508C113.007 45.6508 114.196 45.0297 114.97 43.7875C115.755 42.5453 116.165 40.5883 116.2 37.9164V32.5902Z" fill="#FF2E36"/>
<defs>
<clipPath id="clip0_75_2">
<rect width="56.2326" height="50.4651" fill="white" transform="translate(28.1164 44.6977)"/>
</clipPath>
</defs>
</svg>
