<svg width="227" height="221" viewBox="0 0 227 221" fill="none" xmlns="http://www.w3.org/2000/svg">
<ellipse cx="106.294" cy="110.5" rx="106.294" ry="110.5" fill="#E8EFFF"/>
<path d="M70.9116 87.8413H57.646V101.435H49.4194V67.31H72.2476V73.6616H57.646V81.5132H70.9116V87.8413ZM90.0366 83.2241L87.4351 83.0366C84.9507 83.0366 83.3569 83.8178 82.6538 85.3803V101.435H74.7554V76.0757H82.1616L82.4194 79.3335C83.7476 76.8491 85.5991 75.6069 87.9741 75.6069C88.8179 75.6069 89.5522 75.7007 90.1772 75.8882L90.0366 83.2241ZM104.685 101.904C100.794 101.904 97.646 100.748 95.2397 98.435C92.8335 96.1069 91.6304 93.0835 91.6304 89.3647V88.7085C91.6304 86.1147 92.1069 83.8257 93.0601 81.8413C94.0288 79.8569 95.4351 78.3257 97.2788 77.2475C99.1226 76.1538 101.31 75.6069 103.841 75.6069C107.404 75.6069 110.216 76.7163 112.279 78.935C114.341 81.1382 115.373 84.2163 115.373 88.1694V91.2397H99.6694C99.9507 92.6616 100.568 93.7788 101.521 94.5913C102.474 95.4038 103.708 95.81 105.224 95.81C107.724 95.81 109.677 94.935 111.083 93.185L114.693 97.4507C113.708 98.81 112.31 99.896 110.498 100.708C108.701 101.505 106.763 101.904 104.685 101.904ZM103.794 81.7007C101.482 81.7007 100.107 83.2319 99.6694 86.2944H107.638V85.685C107.669 84.4194 107.349 83.4428 106.677 82.7553C106.005 82.0522 105.044 81.7007 103.794 81.7007ZM131.849 94.31C131.849 93.6382 131.498 93.0991 130.794 92.6928C130.091 92.2866 128.755 91.8647 126.787 91.4272C124.818 90.9897 123.193 90.4194 121.912 89.7163C120.63 88.9975 119.654 88.1303 118.982 87.1147C118.31 86.0991 117.974 84.935 117.974 83.6225C117.974 81.2944 118.935 79.3803 120.857 77.8803C122.779 76.3647 125.294 75.6069 128.404 75.6069C131.748 75.6069 134.435 76.3647 136.466 77.8803C138.498 79.396 139.513 81.3882 139.513 83.8569H131.591C131.591 81.8257 130.521 80.81 128.38 80.81C127.552 80.81 126.857 81.0444 126.294 81.5132C125.732 81.9663 125.451 82.5366 125.451 83.2241C125.451 83.9272 125.794 84.4975 126.482 84.935C127.169 85.3725 128.263 85.7319 129.763 86.0132C131.279 86.2944 132.607 86.6303 133.748 87.021C137.56 88.3335 139.466 90.685 139.466 94.0757C139.466 96.3882 138.435 98.271 136.373 99.7241C134.326 101.177 131.669 101.904 128.404 101.904C126.232 101.904 124.294 101.513 122.591 100.732C120.888 99.9507 119.56 98.8882 118.607 97.5444C117.654 96.2007 117.177 94.7866 117.177 93.3022H124.56C124.591 94.4741 124.982 95.3335 125.732 95.8803C126.482 96.4116 127.443 96.6772 128.615 96.6772C129.693 96.6772 130.498 96.4585 131.029 96.021C131.576 95.5835 131.849 95.0132 131.849 94.31ZM150.904 78.7944C152.591 76.6694 154.748 75.6069 157.373 75.6069C160.169 75.6069 162.279 76.435 163.701 78.0913C165.123 79.7475 165.849 82.1928 165.88 85.4272V101.435H157.958V85.6147C157.958 84.271 157.685 83.2866 157.138 82.6616C156.591 82.021 155.662 81.7007 154.349 81.7007C152.724 81.7007 151.576 82.2163 150.904 83.2475V101.435H143.005V65.435H150.904V78.7944Z" fill="#608AF8"/>
<path d="M106.294 128.605C90.0431 128.605 76.8677 142.301 76.8677 159.195C76.8677 176.088 90.0431 189.785 106.294 189.785C122.544 189.785 135.72 176.088 135.72 159.195C135.72 142.301 122.544 128.605 106.294 128.605ZM122.74 153.35L104.202 172.622C103.741 173.101 103.118 173.368 102.468 173.368C101.818 173.368 101.193 173.101 100.735 172.622L92.2672 163.819C91.3084 162.822 91.3084 161.211 92.2672 160.215C93.226 159.218 94.7758 159.218 95.7346 160.215L102.468 167.215L119.273 149.745C120.232 148.748 121.781 148.748 122.74 149.745C123.699 150.742 123.699 152.353 122.74 153.35Z" fill="#608AF8"/>
</svg>
